<svg xmlns="http://www.w3.org/2000/svg" width="3937" height="5434" version="1.1" viewBox="0 0 3937 5434">
 <defs>
  <style type="text/css">
   <![CDATA[
    .fil0 {fill:#00A3E4;fill-rule:nonzero}
    .fil1 {fill:#2957A4;fill-rule:nonzero}
    .fil3 {fill:#AA2C2E;fill-rule:nonzero}
    .fil2 {fill:#ED3237;fill-rule:nonzero}
   ]]>
  </style>
 </defs>
 <g id="Calque_x0020_1">
  <g id="_351464456">
   <g>
    <g>
     <path class="fil0" d="M1823 4539c0,-91 45,-165 119,-165l135 0c74,0 119,74 119,165 0,92 -46,166 -119,166l-135 0c-74,0 -119,-74 -119,-166zm302 0l0 0c0,-46 -19,-83 -55,-83l-122 0c-36,0 -55,37 -55,83 0,47 19,84 55,84l122 0c36,0 55,-37 55,-84z"/>
     <polygon class="fil0" points="1901,3927 1831,3927 1831,3609 1901,3609 1901,3727 2189,3727 2189,3809 1901,3809 "/>
     <path class="fil0" d="M2196 3093c0,92 -46,161 -119,161l-135 0c-73,0 -119,-68 -119,-161 0,-94 39,-161 104,-161l30 0 0 81 -24 0c-27,0 -40,32 -40,80 0,46 19,79 55,79l122 0c36,0 55,-33 55,-79 0,-46 -19,-79 -55,-79l-13 0 0 89 -68 0 0 -170 87 0c74,0 119,70 119,161z"/>
     <polygon class="fil0" points="1831,2182 1901,2182 1901,2372 1972,2372 1972,2213 2042,2213 2042,2372 2119,2372 2119,2177 2189,2177 2189,2453 1831,2453 "/>
     <polygon class="fil0" points="1831,3432 1831,3507 2189,3666 2189,3576 2115,3546 2115,3438 2049,3465 2049,3519 1929,3470 2189,3362 2189,3272 "/>
     <g>
      <polygon class="fil0" points="1951,5167 2189,5167 2189,5086 2075,5086 "/>
      <polygon class="fil0" points="1831,4846 2019,4973 1831,5099 1831,5167 1874,5167 2101,5015 2101,4930 1996,4860 2189,4860 2189,4779 1831,4779 "/>
     </g>
     <g>
      <polygon class="fil0" points="1831,4052 2060,4052 1831,4218 1831,4301 1856,4301 2189,4056 2189,3971 1831,3971 "/>
      <polygon class="fil0" points="1928,4301 2189,4301 2189,4221 2036,4221 "/>
     </g>
     <g>
      <polygon class="fil0" points="1831,2610 2060,2610 1831,2776 1831,2859 1856,2859 2189,2614 2189,2529 1831,2529 "/>
      <polygon class="fil0" points="1928,2859 2189,2859 2189,2779 2036,2779 "/>
     </g>
    </g>
    <g>
     <polygon class="fil1" points="2308,2973 2378,2973 2378,3163 2449,3163 2449,3005 2519,3005 2519,3163 2596,3163 2596,2969 2666,2969 2666,3245 2308,3245 "/>
     <path class="fil1" d="M2541 2820l11 0c25,0 50,-30 50,-87 0,-52 -17,-79 -40,-79l-3 0c-23,0 -31,35 -34,83 -7,78 -32,154 -106,154l-10 0c-61,0 -106,-47 -106,-152 0,-107 53,-156 113,-156l17 0 0 79 -11 0c-26,0 -49,20 -49,77 0,49 16,72 37,72l3 0c29,0 35,-39 38,-86 6,-73 30,-152 102,-152l12 0c65,0 108,54 108,160 0,106 -50,167 -115,167l-16 0 0 -80z"/>
     <path class="fil1" d="M2301 2332c0,-93 44,-158 105,-158l35 0 0 81 -29 0c-25,0 -41,31 -41,77 0,46 19,77 55,77l122 0c36,0 55,-31 55,-77 0,-46 -16,-77 -41,-77l-32 0 0 -81 38 0c61,0 106,65 106,158 0,92 -47,159 -119,159l-134 0c-73,0 -119,-66 -119,-159z"/>
     <polygon class="fil1" points="2308,1596 2596,1596 2596,1408 2666,1440 2666,1678 2308,1678 "/>
     <polygon class="fil1" points="2308,272 2378,272 2378,462 2449,462 2449,304 2519,304 2519,462 2596,462 2596,268 2666,268 2666,544 2308,544 "/>
     <polygon class="fil1" points="2308,1892 2308,1968 2666,2126 2666,2037 2592,2006 2592,1898 2526,1925 2526,1979 2407,1930 2666,1822 2666,1733 "/>
     <polygon class="fil1" points="2308,1155 2308,1231 2666,1389 2666,1300 2592,1269 2592,1162 2526,1189 2526,1242 2407,1193 2666,1085 2666,996 "/>
     <path class="fil1" d="M2308 781l0 168 358 0 0 -81 -287 0 0 -86c0,-45 18,-69 54,-69l108 0c36,0 55,25 55,69l0 38 70 0 0 -38c0,-93 -46,-150 -119,-150l-121 0c-73,0 -119,57 -119,150z"/>
    </g>
    <g>
     <polygon class="fil1" points="1591,5148 1634,5148 1634,5092 1650,5092 1650,5148 1711,5148 1711,5167 1573,5167 1573,5082 1591,5081 "/>
     <path class="fil1" d="M1543 4964l22 24 0 14 -22 -15 0 -24zm151 -18l0 0 17 1 0 88 -138 0 0 -85 17 -1 0 67 41 0 0 -57 16 0 0 57 47 0 0 -70z"/>
     <path class="fil1" d="M1711 4850l0 48 -138 0 0 -47c0,-42 20,-60 69,-60 50,0 70,19 70,59zm-121 1l0 0 0 28 103 0 0 -29c0,-27 -10,-40 -52,-40 -40,0 -51,12 -51,40z"/>
     <path class="fil1" d="M1543 4669l22 24 0 14 -22 -15 0 -24zm151 -18l0 0 17 1 0 88 -138 0 0 -85 17 -1 0 67 41 0 0 -57 16 0 0 57 47 0 0 -70z"/>
     <path class="fil1" d="M1650 4538l62 -36 0 23 -58 31 0 28 58 0 0 19 -138 0 0 -47c0,-30 13,-44 39,-44 21,0 34,10 37,27zm-60 17l0 0 0 28 49 0 0 -27c0,-18 -7,-26 -25,-26 -17,0 -24,8 -24,25z"/>
     <path class="fil1" d="M1679 4381l0 61 33 11 0 20 -138 -51 0 -22 138 -51 0 21 -33 11zm-77 35l0 0 61 20 0 -50 -61 20 -14 4 0 1 14 5z"/>
     <polygon class="fil1" points="1591,4270 1711,4270 1711,4289 1591,4289 1591,4330 1573,4330 1573,4229 1591,4229 "/>
     <polygon class="fil1" points="1573,4183 1573,4164 1711,4164 1711,4183 "/>
     <path class="fil1" d="M1714 4053c0,41 -21,57 -72,57 -51,0 -71,-16 -71,-57 0,-41 21,-57 71,-57 51,0 72,16 72,57zm-126 0l0 0c0,27 11,37 54,37 42,0 54,-10 54,-37 0,-27 -12,-37 -54,-37 -42,0 -54,10 -54,37z"/>
     <polygon class="fil1" points="1711,3854 1616,3920 1604,3928 1604,3928 1619,3928 1711,3928 1711,3945 1573,3945 1573,3928 1678,3858 1678,3857 1663,3858 1573,3858 1573,3841 1711,3841 "/>
     <polygon class="fil1" points="1591,3687 1634,3687 1634,3631 1650,3631 1650,3687 1711,3687 1711,3706 1573,3706 1573,3621 1591,3620 "/>
     <path class="fil1" d="M1650 3510l62 -36 0 22 -58 31 0 28 58 0 0 19 -138 0 0 -47c0,-30 13,-44 39,-44 21,0 34,10 37,27zm-60 17l0 0 0 28 49 0 0 -27c0,-18 -7,-26 -25,-26 -17,0 -24,8 -24,25z"/>
     <path class="fil1" d="M1679 3352l0 61 33 11 0 20 -138 -51 0 -22 138 -51 0 21 -33 11zm-77 35l0 0 61 20 0 -50 -61 20 -14 4 0 1 14 5z"/>
     <polygon class="fil1" points="1711,3186 1616,3251 1604,3259 1604,3260 1619,3259 1711,3259 1711,3276 1573,3276 1573,3259 1678,3189 1678,3189 1663,3189 1573,3189 1573,3172 1711,3172 "/>
     <path class="fil1" d="M1714 3069c-2,36 -25,52 -73,52 -48,0 -70,-19 -70,-60 0,-11 3,-25 6,-32l17 2c-3,7 -6,18 -6,29 0,29 13,41 53,41 42,0 56,-13 56,-42 0,-11 -3,-21 -7,-29l16 -2c4,8 7,18 8,29l33 6 0 17 -33 -11z"/>
     <path class="fil1" d="M1679 2902l0 61 33 11 0 20 -138 -51 0 -22 138 -51 0 21 -33 11zm-77 35l0 0 61 20 0 -50 -61 20 -14 4 0 1 14 5z"/>
     <polygon class="fil1" points="1573,2824 1573,2805 1711,2805 1711,2824 "/>
     <path class="fil1" d="M1714 2712c0,16 -4,30 -11,41l-17 -3c7,-11 11,-23 11,-37 0,-20 -9,-29 -24,-29 -31,0 -18,68 -64,68 -22,0 -39,-14 -39,-46 0,-13 3,-27 7,-37l16 3c-4,11 -7,21 -7,33 0,21 10,28 20,28 30,0 16,-68 63,-68 26,0 42,17 42,47z"/>
     <polygon class="fil1" points="1694,2529 1711,2530 1711,2618 1573,2618 1573,2533 1591,2532 1591,2599 1632,2599 1632,2542 1648,2542 1648,2599 1694,2599 "/>
    </g>
    <g>
     <g>
      <path class="fil0" d="M1987 1471l-64 -64 -213 0 -92 196 -194 0 -97 207 0 0 -64 137 138 138 143 -306 1 -2 0 0c0,0 3,-9 12,-10 4,0 8,1 11,4l310 310c3,3 8,6 13,5 6,-1 12,-7 12,-11l0 -207 -141 -141 69 -146c0,0 3,-9 12,-10 4,0 8,1 11,4l310 309c3,3 8,6 13,5 6,-1 12,-5 12,-11l0 -207 -202 -202z"/>
     </g>
     <path class="fil1" d="M1559 1769c4,0 8,1 11,4l310 310c3,3 8,6 13,5 1,0 1,0 2,-1l-131 -359 -204 41z"/>
     <path class="fil1" d="M1833 1580c2,-3 5,-6 11,-7 4,0 8,1 11,4l310 309c3,3 8,6 13,5 1,0 2,0 3,-1l-257 -483 -90 173z"/>
     <polygon class="fil1" points="1619,1603 1763,1728 1711,1407 "/>
     <polygon class="fil1" points="1328,1811 1328,1811 1264,1948 1402,2086 1426,1603 "/>
     <path class="fil2" d="M1448 2133l238 238c3,3 9,7 14,7 8,-1 12,-8 12,-13l0 -205 -190 -190 -74 164z"/>
     <path class="fil2" d="M1448 2133l238 238c3,3 9,7 14,7 8,-1 12,-8 12,-13l0 -205 -190 -190 -74 164z"/>
    </g>
   </g>
   <path class="fil3" d="M1448 2133l238 238c3,3 9,7 14,7 2,0 3,-1 4,-1l-182 -406 -74 164z"/>
  </g>
 </g>
</svg>
